<svg width="163" height="48" viewBox="0 0 163 48" fill="none" xmlns="http://www.w3.org/2000/svg">
<path d="M16.736 12.44V27.384C16.736 29.9227 16.0427 31.864 14.656 33.208C13.2907 34.552 11.4027 35.224 8.992 35.224C6.432 35.224 4.384 34.5093 2.848 33.08C1.33333 31.6507 0.576 29.592 0.576 26.904H6.784C6.80533 28.6747 7.456 29.56 8.736 29.56C9.888 29.56 10.464 28.8347 10.464 27.384V12.44H16.736ZM28.9915 35.224C26.3675 35.224 24.2128 34.6053 22.5275 33.368C20.8422 32.1093 19.9355 30.3173 19.8075 27.992H26.4955C26.5595 28.7813 26.7942 29.3573 27.1995 29.72C27.6048 30.0827 28.1275 30.264 28.7675 30.264C29.3435 30.264 29.8128 30.1253 30.1755 29.848C30.5595 29.5493 30.7515 29.144 30.7515 28.632C30.7515 27.9707 30.4422 27.4587 29.8235 27.096C29.2048 26.7333 28.2022 26.328 26.8155 25.88C25.3435 25.3893 24.1488 24.92 23.2315 24.472C22.3355 24.0027 21.5462 23.3307 20.8635 22.456C20.2022 21.56 19.8715 20.3973 19.8715 18.968C19.8715 17.5173 20.2342 16.28 20.9595 15.256C21.6848 14.2107 22.6875 13.4213 23.9675 12.888C25.2475 12.3547 26.6982 12.088 28.3195 12.088C30.9435 12.088 33.0342 12.7067 34.5915 13.944C36.1702 15.16 37.0128 16.8773 37.1195 19.096H30.3035C30.2822 18.4133 30.0688 17.9013 29.6635 17.56C29.2795 17.2187 28.7782 17.048 28.1595 17.048C27.6902 17.048 27.3062 17.1867 27.0075 17.464C26.7088 17.7413 26.5595 18.136 26.5595 18.648C26.5595 19.0747 26.7195 19.448 27.0395 19.768C27.3808 20.0667 27.7968 20.3333 28.2875 20.568C28.7782 20.7813 29.5035 21.0587 30.4635 21.4C31.8928 21.8907 33.0662 22.3813 33.9835 22.872C34.9222 23.3413 35.7222 24.0133 36.3835 24.888C37.0662 25.7413 37.4075 26.8293 37.4075 28.152C37.4075 29.496 37.0662 30.7013 36.3835 31.768C35.7222 32.8347 34.7515 33.6773 33.4715 34.296C32.2128 34.9147 30.7195 35.224 28.9915 35.224ZM51.1393 35.224C49.0273 35.224 47.0859 34.7333 45.3153 33.752C43.5446 32.7493 42.1366 31.3733 41.0913 29.624C40.0673 27.8533 39.5553 25.8587 39.5553 23.64C39.5553 21.4213 40.0673 19.4373 41.0913 17.688C42.1366 15.9173 43.5446 14.5413 45.3153 13.56C47.0859 12.5787 49.0273 12.088 51.1393 12.088C53.2726 12.088 55.2139 12.5787 56.9633 13.56C58.7339 14.5413 60.1313 15.9173 61.1553 17.688C62.1793 19.4373 62.6913 21.4213 62.6913 23.64C62.6913 25.8587 62.1793 27.8533 61.1553 29.624C60.1313 31.3733 58.7339 32.7493 56.9633 33.752C55.1926 34.7333 53.2513 35.224 51.1393 35.224ZM51.1393 29.4C52.7393 29.4 53.9979 28.8773 54.9153 27.832C55.8539 26.7867 56.3233 25.3893 56.3233 23.64C56.3233 21.848 55.8539 20.44 54.9153 19.416C53.9979 18.3707 52.7393 17.848 51.1393 17.848C49.5179 17.848 48.2486 18.3707 47.3313 19.416C46.4139 20.44 45.9553 21.848 45.9553 23.64C45.9553 25.4107 46.4139 26.8187 47.3313 27.864C48.2486 28.888 49.5179 29.4 51.1393 29.4ZM86.4068 35H80.1348L71.7828 22.392V35H65.5108V12.44H71.7828L80.1348 25.208V12.44H86.4068V35Z" fill="#F5A84D"/>
<path d="M100.187 20.75H103.373L107.333 26.06L103.355 31.37H100.187L103.013 27.59C103.049 27.542 103.085 27.5 103.121 27.464C103.157 27.416 103.187 27.368 103.211 27.32H88.433V24.8H103.175C103.151 24.764 103.121 24.728 103.085 24.692C103.061 24.644 103.031 24.596 102.995 24.548L100.187 20.75Z" fill="#F4F4F4"/>
<path d="M91.88 23C91.432 23 91.08 22.872 90.824 22.616C90.568 22.36 90.44 22.008 90.44 21.56V19.68H89.28V18.6H90.44V17.36H91.64V18.6H93.28V19.68H91.64V21.56C91.64 21.8 91.76 21.92 92 21.92H93.2V23H91.88ZM96.1969 23.08C95.8075 23.08 95.4689 23.008 95.1809 22.864C94.8929 22.7147 94.6689 22.5093 94.5089 22.248C94.3542 21.9813 94.2769 21.672 94.2769 21.32V20.28C94.2769 19.928 94.3542 19.6213 94.5089 19.36C94.6689 19.0933 94.8929 18.888 95.1809 18.744C95.4689 18.5947 95.8075 18.52 96.1969 18.52C96.5915 18.52 96.9302 18.5947 97.2129 18.744C97.5009 18.888 97.7222 19.0933 97.8769 19.36C98.0369 19.6213 98.1169 19.928 98.1169 20.28V21.32C98.1169 21.672 98.0369 21.9813 97.8769 22.248C97.7222 22.5093 97.5009 22.7147 97.2129 22.864C96.9302 23.008 96.5915 23.08 96.1969 23.08ZM96.1969 22.04C96.4315 22.04 96.6102 21.9787 96.7329 21.856C96.8555 21.728 96.9169 21.5493 96.9169 21.32V20.28C96.9169 20.0453 96.8555 19.8667 96.7329 19.744C96.6102 19.6213 96.4315 19.56 96.1969 19.56C95.9675 19.56 95.7889 19.6213 95.6609 19.744C95.5382 19.8667 95.4769 20.0453 95.4769 20.28V21.32C95.4769 21.5493 95.5382 21.728 95.6609 21.856C95.7889 21.9787 95.9675 22.04 96.1969 22.04Z" fill="#F4F4F4"/>
<path d="M118.45 10.526V12.686H115.876V20.831H118.45V23H110.35V20.831H112.924V12.686H110.35V10.526H118.45ZM121.053 23V13.442H123.537L123.735 14.549C124.161 14.069 124.611 13.712 125.085 13.478C125.559 13.244 126.099 13.127 126.705 13.127C127.521 13.127 128.163 13.376 128.631 13.874C129.099 14.372 129.333 15.074 129.333 15.98V23H126.489V16.799C126.489 16.409 126.462 16.1 126.408 15.872C126.354 15.638 126.258 15.473 126.12 15.377C125.988 15.275 125.805 15.224 125.571 15.224C125.373 15.224 125.178 15.269 124.986 15.359C124.8 15.443 124.617 15.566 124.437 15.728C124.257 15.89 124.077 16.085 123.897 16.313V23H121.053ZM140.45 22.442C140.078 22.682 139.628 22.886 139.1 23.054C138.572 23.222 137.978 23.306 137.318 23.306C136.07 23.306 135.143 22.988 134.537 22.352C133.931 21.71 133.628 20.84 133.628 19.742V15.404H131.621V13.442H133.628V11.372L136.472 11.03V13.442H139.55L139.271 15.404H136.472V19.742C136.472 20.216 136.58 20.555 136.796 20.759C137.012 20.963 137.357 21.065 137.831 21.065C138.167 21.065 138.473 21.026 138.749 20.948C139.031 20.864 139.283 20.759 139.505 20.633L140.45 22.442ZM145.105 19.049C145.171 19.571 145.306 19.994 145.51 20.318C145.72 20.636 145.987 20.87 146.311 21.02C146.635 21.164 146.998 21.236 147.4 21.236C147.838 21.236 148.261 21.164 148.669 21.02C149.077 20.876 149.47 20.684 149.848 20.444L150.991 21.992C150.541 22.376 149.995 22.691 149.353 22.937C148.717 23.183 147.991 23.306 147.175 23.306C146.083 23.306 145.168 23.09 144.43 22.658C143.692 22.22 143.137 21.62 142.765 20.858C142.393 20.096 142.207 19.22 142.207 18.23C142.207 17.288 142.387 16.433 142.747 15.665C143.107 14.891 143.632 14.276 144.322 13.82C145.018 13.358 145.867 13.127 146.869 13.127C147.781 13.127 148.57 13.322 149.236 13.712C149.908 14.102 150.427 14.663 150.793 15.395C151.165 16.127 151.351 17.006 151.351 18.032C151.351 18.194 151.345 18.368 151.333 18.554C151.327 18.74 151.315 18.905 151.297 19.049H145.105ZM146.869 15.035C146.359 15.035 145.948 15.218 145.636 15.584C145.324 15.95 145.135 16.535 145.069 17.339H148.579C148.573 16.643 148.438 16.085 148.174 15.665C147.91 15.245 147.475 15.035 146.869 15.035ZM153.522 23V21.092H154.782V15.332H153.522V13.442H156.951L157.473 15.593C157.815 14.771 158.25 14.159 158.778 13.757C159.312 13.355 159.963 13.154 160.731 13.154C161.055 13.154 161.343 13.181 161.595 13.235C161.847 13.283 162.084 13.352 162.306 13.442L161.442 15.791C161.268 15.743 161.094 15.707 160.92 15.683C160.746 15.659 160.554 15.647 160.344 15.647C159.72 15.647 159.171 15.902 158.697 16.412C158.229 16.922 157.872 17.57 157.626 18.356V21.092H159.516V23H153.522ZM159.993 17.438V14.648L160.416 13.442H162.306L161.775 17.438H159.993Z" fill="#64AEF1"/>
<path d="M116.344 24.347C117.04 24.347 117.655 24.404 118.189 24.518C118.723 24.626 119.2 24.77 119.62 24.95L118.837 26.804C118.507 26.678 118.168 26.588 117.82 26.534C117.472 26.474 117.127 26.444 116.785 26.444C116.221 26.444 115.816 26.546 115.57 26.75C115.33 26.954 115.21 27.293 115.21 27.767V29.045H118.324L118.009 31.016H115.21V38H112.384V31.016H110.377V29.045H112.384V27.659C112.384 27.029 112.534 26.465 112.834 25.967C113.134 25.469 113.578 25.076 114.166 24.788C114.754 24.494 115.48 24.347 116.344 24.347ZM129.099 35.246C129.099 35.606 129.147 35.867 129.243 36.029C129.345 36.191 129.507 36.314 129.729 36.398L129.144 38.27C128.58 38.216 128.103 38.093 127.713 37.901C127.329 37.703 127.026 37.406 126.804 37.01C126.438 37.448 125.97 37.775 125.4 37.991C124.83 38.201 124.248 38.306 123.654 38.306C122.67 38.306 121.884 38.027 121.296 37.469C120.714 36.905 120.423 36.182 120.423 35.3C120.423 34.262 120.828 33.461 121.638 32.897C122.454 32.333 123.6 32.051 125.076 32.051H126.363V31.691C126.363 31.193 126.201 30.824 125.877 30.584C125.559 30.344 125.091 30.224 124.473 30.224C124.167 30.224 123.774 30.269 123.294 30.359C122.814 30.443 122.334 30.566 121.854 30.728L121.197 28.838C121.815 28.604 122.457 28.427 123.123 28.307C123.795 28.187 124.395 28.127 124.923 28.127C126.345 28.127 127.395 28.418 128.073 29C128.757 29.576 129.099 30.41 129.099 31.502V35.246ZM124.635 36.272C124.941 36.272 125.262 36.182 125.598 36.002C125.934 35.816 126.189 35.555 126.363 35.219V33.671H125.661C124.869 33.671 124.287 33.794 123.915 34.04C123.543 34.28 123.357 34.634 123.357 35.102C123.357 35.468 123.468 35.756 123.69 35.966C123.918 36.17 124.233 36.272 124.635 36.272ZM136.913 36.065C137.303 36.065 137.669 35.99 138.011 35.84C138.359 35.684 138.704 35.486 139.046 35.246L140.315 37.046C139.895 37.406 139.382 37.706 138.776 37.946C138.176 38.186 137.504 38.306 136.76 38.306C135.734 38.306 134.852 38.096 134.114 37.676C133.376 37.25 132.809 36.662 132.413 35.912C132.017 35.156 131.819 34.28 131.819 33.284C131.819 32.288 132.02 31.403 132.422 30.629C132.83 29.849 133.406 29.237 134.15 28.793C134.9 28.349 135.788 28.127 136.814 28.127C137.54 28.127 138.185 28.229 138.749 28.433C139.319 28.631 139.841 28.928 140.315 29.324L139.082 31.034C138.758 30.806 138.416 30.629 138.056 30.503C137.696 30.377 137.321 30.314 136.931 30.314C136.289 30.314 135.77 30.542 135.374 30.998C134.984 31.448 134.789 32.21 134.789 33.284C134.789 33.986 134.882 34.541 135.068 34.949C135.254 35.351 135.506 35.639 135.824 35.813C136.148 35.981 136.511 36.065 136.913 36.065ZM145.105 34.049C145.171 34.571 145.306 34.994 145.51 35.318C145.72 35.636 145.987 35.87 146.311 36.02C146.635 36.164 146.998 36.236 147.4 36.236C147.838 36.236 148.261 36.164 148.669 36.02C149.077 35.876 149.47 35.684 149.848 35.444L150.991 36.992C150.541 37.376 149.995 37.691 149.353 37.937C148.717 38.183 147.991 38.306 147.175 38.306C146.083 38.306 145.168 38.09 144.43 37.658C143.692 37.22 143.137 36.62 142.765 35.858C142.393 35.096 142.207 34.22 142.207 33.23C142.207 32.288 142.387 31.433 142.747 30.665C143.107 29.891 143.632 29.276 144.322 28.82C145.018 28.358 145.867 28.127 146.869 28.127C147.781 28.127 148.57 28.322 149.236 28.712C149.908 29.102 150.427 29.663 150.793 30.395C151.165 31.127 151.351 32.006 151.351 33.032C151.351 33.194 151.345 33.368 151.333 33.554C151.327 33.74 151.315 33.905 151.297 34.049H145.105ZM146.869 30.035C146.359 30.035 145.948 30.218 145.636 30.584C145.324 30.95 145.135 31.535 145.069 32.339H148.579C148.573 31.643 148.438 31.085 148.174 30.665C147.91 30.245 147.475 30.035 146.869 30.035Z" fill="#64AEF1"/>
</svg>
